<svg xmlns="http://www.w3.org/2000/svg" viewBox="0 0 100 110" width="48" height="53">
  <g>
    <!-- Dumpster body -->
    <path fill="none" stroke="#e8e8e8" d="M12,38 L18,98 L82,98 L88,38 Z" stroke-width="2.5" stroke-linejoin="round" stroke-linecap="round"/>
    <rect fill="none" stroke="#e8e8e8" x="8" y="30" width="84" height="10" rx="2" stroke-width="2.5"/>
    <path fill="none" stroke="#e8e8e8" d="M8,30 L2,12 L46,8 L50,30" stroke-width="2" stroke-linejoin="round" stroke-linecap="round"/>
    <path fill="none" stroke="#e8e8e8" d="M92,30 L98,12 L54,8 L50,30" stroke-width="2" stroke-linejoin="round" stroke-linecap="round"/>
    <circle fill="none" stroke="#e8e8e8" cx="24" cy="100" r="5" stroke-width="2"/>
    <circle fill="none" stroke="#e8e8e8" cx="76" cy="100" r="5" stroke-width="2"/>
    <line fill="none" stroke="#e8e8e8" x1="35" y1="40" x2="33" y2="96" stroke-width="1" opacity="0.4"/>
    <line fill="none" stroke="#e8e8e8" x1="50" y1="40" x2="50" y2="96" stroke-width="1" opacity="0.4"/>
    <line fill="none" stroke="#e8e8e8" x1="65" y1="40" x2="67" y2="96" stroke-width="1" opacity="0.4"/>
    <!-- HDD simplified -->
    <g transform="translate(14,-4) rotate(-12,30,55)">
      <rect fill="none" stroke="#e8e8e8" x="16" y="14" width="28" height="44" rx="2" stroke-width="2"/>
      <circle fill="none" stroke="#e8e8e8" cx="30" cy="36" r="9" stroke-width="1.2" opacity="0.5"/>
      <circle fill="#e8e8e8" cx="30" cy="36" r="2" opacity="0.4"/>
    </g>
    <!-- SSD simplified -->
    <g transform="translate(30,-18)">
      <rect fill="none" stroke="#e8e8e8" x="16" y="14" width="22" height="36" rx="2" stroke-width="2"/>
      <rect fill="#e8e8e8" opacity="0.15" x="19" y="27" width="8" height="6" rx="1"/>
      <rect fill="#e8e8e8" opacity="0.15" x="29" y="27" width="5" height="6" rx="1"/>
    </g>
    <!-- NVMe simplified -->
    <g transform="translate(48,-10) rotate(10,18,50)">
      <rect fill="none" stroke="#e8e8e8" x="12" y="10" width="12" height="52" rx="2" stroke-width="2"/>
      <rect fill="#e8e8e8" opacity="0.15" x="14" y="14" width="8" height="6" rx="1"/>
      <rect fill="#e8e8e8" opacity="0.15" x="14" y="22" width="8" height="5" rx="1"/>
    </g>
  </g>
</svg>